<svg xmlns="http://www.w3.org/2000/svg" width="973.99" height="1094.95" viewBox="0 0 973.99 1094.95"><defs><style>.cls-1,.cls-2,.cls-6{fill:none;}.cls-1{stroke:#e82637;stroke-width:3px;}.cls-1,.cls-2{stroke-miterlimit:10;}.cls-2{stroke:#000;}.cls-3{font-size:120px;}.cls-3,.cls-4{fill:#707071;font-family:ProximaNova-Light, Proxima Nova;font-weight:300;}.cls-4{font-size:90px;}.cls-5{font-size:228px;fill:#ebebeb;font-family:DeadStock, Dead Stock - Demo;letter-spacing:-0.05em;}</style></defs><title>logo</title><g id="Layer_1" data-name="Layer 1"><rect class="cls-1" x="144.14" y="144.14" width="685.71" height="685.71" transform="translate(-201.72 547.47) rotate(-45)"/><path class="cls-2" d="M971.87,487" transform="translate(0 60.47)"/><path class="cls-2" d="M2.11,487" transform="translate(0 60.47)"/><path class="cls-2" d="M971.88,487" transform="translate(0 60.47)"/><path class="cls-2" d="M971.88,487" transform="translate(0 60.47)"/><path class="cls-2" d="M2.11,487" transform="translate(0 60.47)"/><path class="cls-2" d="M971.88,487" transform="translate(0 60.47)"/><path class="cls-2" d="M2.11,487" transform="translate(0 60.47)"/><path class="cls-2" d="M971.87,487" transform="translate(0 60.47)"/><path class="cls-2" d="M2.11,487" transform="translate(0 60.47)"/><path class="cls-2" d="M971.87,487" transform="translate(0 60.47)"/><text class="cls-3" transform="translate(325 435.47)">CITRA</text><text class="cls-4" transform="translate(309.42 719.02)">SKINNER</text><line class="cls-1" x1="2.11" y1="547.47" x2="521.64" y2="983.41"/><line class="cls-1" x1="452.34" y1="983.41" x2="971.87" y2="547.47"/><line class="cls-1" x1="2.11" y1="547.47" x2="557.66" y2="936.47"/><line class="cls-1" x1="416.33" y1="936.47" x2="971.88" y2="547.47"/><line class="cls-1" x1="384.53" y1="886.57" x2="971.87" y2="547.47"/><line class="cls-1" x1="2.11" y1="547.47" x2="589.45" y2="886.57"/><line class="cls-1" x1="2.1" y1="547.47" x2="521.64" y2="111.53"/><line class="cls-1" x1="452.34" y1="111.53" x2="971.87" y2="547.47"/><line class="cls-1" x1="2.1" y1="547.47" x2="557.65" y2="158.47"/><line class="cls-1" x1="416.32" y1="158.47" x2="971.87" y2="547.47"/><line class="cls-1" x1="384.53" y1="208.37" x2="971.87" y2="547.47"/><line class="cls-1" x1="2.1" y1="547.47" x2="589.44" y2="208.37"/></g><g id="Layer_2" data-name="Layer 2"><text class="cls-5" transform="translate(97.68 609.65) rotate(1)">ROCKS</text><line class="cls-6" x1="486.99" x2="486.99" y2="1094.95"/></g></svg>